<svg width="44" height="44" viewBox="0 0 44 44" fill="none" xmlns="http://www.w3.org/2000/svg">
<rect width="44" height="44" rx="22" fill="#7DF29F"/>
<g clip-path="url(#clip0_118_1152)">
<path fill-rule="evenodd" clip-rule="evenodd" d="M17.8872 39.5241C13.4291 38.4782 9.53716 35.7724 7.00385 31.9577L8.33966 31.0707C10.4057 34.1818 13.4639 36.4832 16.9961 37.6147L17.5005 35.7322C14.503 34.7504 11.9016 32.8116 10.1031 30.2035L11.4047 29.3059C12.99 31.6047 15.2756 33.3197 17.9104 34.2024L18.4262 32.2777C16.8583 31.7327 15.4357 30.8362 14.2673 29.6565C13.0844 28.4621 12.1943 27.0099 11.6669 25.4137C11.1394 23.8175 10.989 22.1208 11.2275 20.4567L12.8365 20.6872C12.6338 22.1027 12.7617 23.546 13.2103 24.9036C13.3235 25.2461 13.4563 25.5809 13.6077 25.9062L15.3161 24.9199C14.616 23.3181 14.5139 21.5154 15.0327 19.8412C15.572 18.1009 16.7433 16.6255 18.3159 15.7054C19.8885 14.7853 21.7486 14.4872 23.5299 14.8699C25.3113 15.2525 26.8849 16.288 27.941 17.7727C28.9971 19.2574 29.4592 21.0836 29.2364 22.892C29.0135 24.7002 28.1218 26.3596 26.7368 27.5434L25.7133 26.346C26.7992 25.4179 27.4982 24.1169 27.673 22.6993C27.8477 21.2815 27.4854 19.8497 26.6575 18.6858C26.0399 17.8177 25.1967 17.1453 24.2285 16.7353L23.6996 18.7094C24.3377 19.0393 24.8691 19.5494 25.2249 20.1804C25.6482 20.9312 25.7965 21.8059 25.6443 22.6541C25.492 23.5024 25.0488 24.2711 24.3908 24.8278C23.7329 25.3844 22.9014 25.6942 22.0396 25.7038C21.1779 25.7134 20.3397 25.4222 19.6695 24.8803L20.6565 23.6596C21.0426 23.9718 21.5256 24.1396 22.0221 24.134C22.5187 24.1285 22.9978 23.95 23.3769 23.6292C23.756 23.3085 24.0114 22.8656 24.0991 22.3769C24.1869 21.8881 24.1014 21.3841 23.8575 20.9515C23.6136 20.5189 23.2265 20.1849 22.7628 20.0071C22.2992 19.8292 21.7881 19.8186 21.3174 19.9771C20.8468 20.1354 20.4461 20.4531 20.1844 20.875C19.9227 21.2971 19.8164 21.7972 19.8837 22.2892L18.3284 22.502C18.2116 21.6481 18.3961 20.7802 18.8502 20.0478C19.3045 19.3153 19.9998 18.7642 20.8166 18.4892C21.2558 18.3414 21.7153 18.2784 22.1715 18.2997L22.7005 16.3257C21.46 16.1722 20.1981 16.4292 19.1113 17.065C17.8784 17.7863 16.9601 18.9431 16.5374 20.3076C16.1146 21.6719 16.2178 23.1452 16.8268 24.4374C17.4358 25.7294 18.5064 26.7468 19.8278 27.2892C21.1493 27.8315 22.626 27.8594 23.9671 27.3677L24.5095 28.8465C22.7988 29.4739 20.9154 29.4382 19.2298 28.7464C17.9722 28.2303 16.8927 27.3769 16.103 26.2923L14.3955 27.278C14.7004 27.7172 15.0437 28.1305 15.4222 28.5127C16.4285 29.5287 17.6565 30.2978 19.0098 30.7595C20.3631 31.2212 21.805 31.3631 23.2224 31.1741C24.6397 30.985 25.9941 30.4701 27.179 29.6697C28.364 28.8694 29.3474 27.8053 30.0521 26.5611C30.7568 25.3169 31.1636 23.9263 31.2406 22.4984C31.3177 21.0706 31.0628 19.6442 30.4961 18.3314L31.9884 17.6872C32.6547 19.2305 32.9543 20.9073 32.8637 22.586C32.8373 23.077 32.7776 23.5643 32.6857 24.0447L34.6107 24.5605C34.8382 23.4397 34.9163 22.2888 34.839 21.1381C34.6892 18.9058 33.96 16.7513 32.7233 14.8869C31.4867 13.0224 29.7854 11.5126 27.7873 10.5064L28.4984 9.09411C30.7421 10.2241 32.6524 11.9194 34.041 14.0129C35.4295 16.1064 36.2483 18.5257 36.4166 21.0322C36.5849 23.5386 36.0968 26.0457 35.0005 28.306C33.9043 30.5663 32.2377 32.5017 30.1652 33.9214L29.2717 32.617C31.1174 31.3527 32.6016 29.629 33.5779 27.616C33.8189 27.1191 34.0269 26.6089 34.2012 26.0886L32.2762 25.5728C32.0615 26.1904 31.7908 26.7895 31.4664 27.3622C30.638 28.8249 29.4819 30.0758 28.0888 31.0167C26.6958 31.9576 25.1036 32.563 23.4373 32.7853C22.2753 32.9403 21.0992 32.9061 19.9543 32.6871L19.4385 34.6119C22.1427 35.1609 24.9601 34.8273 27.4707 33.6479L28.143 35.079C25.2944 36.4172 22.0941 36.7857 19.0286 36.1417L18.5242 38.0241C22.5038 38.8871 26.6661 38.2387 30.1981 36.199C33.8104 34.1131 36.4918 30.7288 37.6965 26.7352C38.9011 22.7418 38.5384 18.4393 36.6823 14.7037L38.1183 13.9901C40.156 18.091 40.5541 22.8143 39.2317 27.1984C37.9092 31.5825 34.9655 35.2977 31 37.5877C27.0345 39.8776 22.3454 40.5701 17.8872 39.5241ZM26.1816 4.49278C30.6301 5.55565 34.5071 8.27205 37.0251 12.0901L35.6865 12.9729C33.3927 9.49491 29.8611 7.02055 25.8089 6.05237C21.7568 5.08423 17.488 5.69488 13.8699 7.76031C10.305 9.7954 7.63509 13.0923 6.38401 16.9972L8.2668 17.5017C8.69571 16.1923 9.31146 14.9455 10.0997 13.8015C11.5278 11.7288 13.4725 10.0651 15.7412 8.97515C18.01 7.88522 20.5241 7.40671 23.0346 7.58711L22.9213 9.16412C20.6854 9.00348 18.4465 9.4296 16.426 10.4003C16.3586 10.4327 16.2916 10.4656 16.225 10.4991L17.2207 12.2239C18.2416 11.7248 19.3389 11.3868 20.4738 11.2261C21.6653 11.0575 22.8714 11.0884 24.0437 11.3126L24.9399 7.96813L26.468 8.37758L25.5718 11.7222C25.7637 11.7889 25.9542 11.8612 26.143 11.9389C27.9354 12.6773 29.4981 13.8812 30.6693 15.426L29.374 16.408C28.3777 15.094 27.0485 14.07 25.5238 13.4419C23.9991 12.8138 22.3342 12.6045 20.7015 12.8355C19.0687 13.0666 17.5274 13.7298 16.2368 14.7562C14.9463 15.7828 13.9535 17.1354 13.361 18.6743L11.844 18.0903C12.5406 16.2812 13.7078 14.6909 15.225 13.4842C15.4293 13.3216 15.639 13.1668 15.8537 13.02L14.8574 11.2944C13.5047 12.1969 12.3305 13.3506 11.4017 14.6985C10.1299 16.5444 9.36235 18.6904 9.17492 20.9242C8.98751 23.1579 9.38684 25.4018 10.3333 27.4338L8.89996 28.1014C7.83726 25.8198 7.38893 23.3001 7.59935 20.792C7.64919 20.198 7.73555 19.6095 7.85734 19.0298L5.97456 18.5253C5.19644 22.1131 5.64276 25.874 7.26604 29.1969L5.82528 29.9008C3.81771 25.7912 3.4499 21.0716 4.79636 16.7007C6.14294 12.3296 9.10288 8.63524 13.0749 6.36781C17.0469 4.10028 21.7331 3.42991 26.1816 4.49278Z" fill="#FDFFFC"/>
</g>
<defs>
<clipPath id="clip0_118_1152">
<rect width="36" height="36" fill="white" transform="translate(4 4)"/>
</clipPath>
</defs>
</svg>
