<svg width="44" height="44" viewBox="0 0 44 44" fill="none" xmlns="http://www.w3.org/2000/svg">
<rect width="44" height="44" rx="22" fill="#63EA8A"/>
<path d="M20.8095 21.7269C21.4437 22.091 22.5564 22.0911 23.1907 21.7268C23.1906 21.7269 23.1908 21.7268 23.1907 21.7268L34 15.5195C33.6455 14.6363 32.6709 14 31.5266 14H12.4734C11.329 14 10.3546 14.6363 10 15.5195L20.8095 21.7269C20.8096 21.7269 20.8094 21.7268 20.8095 21.7269Z" fill="#FDFFFC"/>
<path d="M23.957 22.7664C23.9568 22.7665 23.957 22.7664 23.957 22.7664C23.4084 23.0995 22.7039 23.2663 22 23.2663C21.2959 23.2663 20.5921 23.0998 20.0435 22.7666C20.0434 22.7665 20.0436 22.7666 20.0435 22.7666L10 16.667V27.6447C10 28.9436 11.16 30.0003 12.5859 30.0003H31.4142C32.84 30.0003 34 28.9436 34 27.6447V16.667L23.957 22.7664Z" fill="#FDFFFC"/>
</svg>
