<svg width="64" height="53" viewBox="0 0 64 53" fill="none" xmlns="http://www.w3.org/2000/svg">
<path fill-rule="evenodd" clip-rule="evenodd" d="M18.0371 2.2C18.0371 0.984973 19.0466 0 20.2918 0H42.8384C44.0836 0 45.0931 0.984973 45.0931 2.2V11C45.0931 12.215 44.0836 13.2 42.8384 13.2H20.2918C19.0466 13.2 18.0371 12.215 18.0371 11V2.2ZM22.5464 4.4V8.8H40.5838V4.4H22.5464Z" fill="#3BAD9A"/>
<path fill-rule="evenodd" clip-rule="evenodd" d="M0 10.9998C0 9.78478 1.00945 8.7998 2.25467 8.7998H60.876C62.1212 8.7998 63.1306 9.78478 63.1306 10.9998V50.5998C63.1306 51.8148 62.1212 52.7998 60.876 52.7998H2.25467C1.00945 52.7998 0 51.8148 0 50.5998V10.9998ZM4.50933 13.1998V48.3998H58.6213V13.1998H4.50933Z" fill="#3BAD9A"/>
<path d="M4.50933 48.3998V13.1998H58.6213V48.3998H4.50933Z" fill="#3BAD9A"/>
<path d="M36.1184 31.2313C36.3626 32.4227 37.5504 33.1954 38.7715 32.9571L58.6213 29.0834V24.5962L37.8871 28.6425C36.6661 28.8808 35.8742 30.0398 36.1184 31.2313Z" fill="white"/>
<path d="M25.2435 28.6425L4.50933 24.5962V29.0834L24.3591 32.9571C25.5802 33.1954 26.768 32.4227 27.0122 31.2313C27.2564 30.0398 26.4645 28.8808 25.2435 28.6425Z" fill="white"/>
<path fill-rule="evenodd" clip-rule="evenodd" d="M24.8008 26.4002C24.8008 25.1852 25.8102 24.2002 27.0554 24.2002H36.0741C37.3193 24.2002 38.3288 25.1852 38.3288 26.4002V35.2002C38.3288 36.4152 37.3193 37.4002 36.0741 37.4002H27.0554C25.8102 37.4002 24.8008 36.4152 24.8008 35.2002V26.4002ZM29.3101 28.6002V33.0002H33.8194V28.6002H29.3101Z" fill="white"/>
</svg>
