<svg width="32" height="62" viewBox="0 0 32 62" fill="none" xmlns="http://www.w3.org/2000/svg">
<path fill-rule="evenodd" clip-rule="evenodd" d="M9.17073 10.581C9.45624 9.64327 10.3415 9 11.3465 9H20.4237C21.4287 9 22.314 9.64327 22.5996 10.581L31.6768 40.3935C31.8741 41.0416 31.7555 41.7421 31.3549 42.2943L17.7391 61.0652C17.3139 61.6514 16.6225 62 15.8851 62C15.1478 62 14.4564 61.6514 14.0312 61.0652L0.415371 42.2943C0.0147594 41.7421 -0.103836 41.0416 0.0935146 40.3935L9.17073 10.581ZM13.041 13.4167L4.75762 40.6218L15.8851 55.9623L27.0127 40.6218L18.7293 13.4167H13.041Z" fill="#3BAD9A"/>
<path d="M4.75762 40.6218L13.041 13.4167H18.7293L27.0127 40.6218L15.8851 55.9623L4.75762 40.6218Z" fill="#3BAD9A"/>
<path fill-rule="evenodd" clip-rule="evenodd" d="M4.09961 2.33333C4.09961 1.04467 5.10906 0 6.35427 0H24.3916C25.6368 0 26.6463 1.04467 26.6463 2.33333V11.6667C26.6463 12.9553 25.6368 14 24.3916 14H6.35427C5.10906 14 4.09961 12.9553 4.09961 11.6667V2.33333ZM8.60894 4.66667V9.33333H22.1369V4.66667H8.60894Z" fill="#F2F2F2"/>
<path d="M8.60894 9.33333V4.66667H22.1369V9.33333H8.60894Z" fill="#F2F2F2"/>
</svg>
