<svg width="46" height="51" viewBox="0 0 46 51" fill="none" xmlns="http://www.w3.org/2000/svg">
<path fill-rule="evenodd" clip-rule="evenodd" d="M22.5468 4.4C18.8111 4.4 15.7828 7.35492 15.7828 11C15.7828 14.6451 18.8111 17.6 22.5468 17.6C26.2824 17.6 29.3108 14.6451 29.3108 11C29.3108 7.35492 26.2824 4.4 22.5468 4.4ZM11.2734 11C11.2734 4.92487 16.3207 0 22.5468 0C28.7729 0 33.8201 4.92487 33.8201 11C33.8201 17.0751 28.7729 22 22.5468 22C16.3207 22 11.2734 17.0751 11.2734 11Z" fill="white"/>
<path d="M15.7828 11C15.7828 7.35492 18.8111 4.4 22.5468 4.4C26.2824 4.4 29.3108 7.35492 29.3108 11C29.3108 14.6451 26.2824 17.6 22.5468 17.6C18.8111 17.6 15.7828 14.6451 15.7828 11Z" fill="white"/>
<path d="M19.4277 31.5979L22.5467 34.0204L25.6657 31.5979C24.698 31.4462 23.6603 31.3636 22.5467 31.3636C21.433 31.3636 20.3953 31.4462 19.4277 31.5979Z" fill="#3BAD9A"/>
<path fill-rule="evenodd" clip-rule="evenodd" d="M22.5467 31.3636C21.433 31.3636 20.3953 31.4462 19.4277 31.5979L16.0798 27.8678C18.0255 27.3102 20.1762 27 22.5467 27C25.2165 27 27.6077 27.3935 29.7411 28.0909L25.6657 31.5979C24.698 31.4462 23.6603 31.3636 22.5467 31.3636ZM22.2969 50.9865H22.7964C22.6304 51.0043 22.4629 51.0043 22.2969 50.9865Z" fill="#3BAD9A"/>
<path d="M30.7315 33.2585L25.4595 37.3533L29.0135 43.3719C29.518 44.2262 29.3692 45.3015 28.6502 45.9972L24.1409 50.3608C23.7643 50.7252 23.2876 50.9338 22.7964 50.9865H42.5851H43.0874C44.325 50.8534 45.2168 49.7747 45.0793 48.5771L42.8385 48.818C45.0793 48.5771 45.0789 48.5734 45.0789 48.5734L45.0783 48.5684L45.0767 48.5547L45.0715 48.5128C45.0671 48.4784 45.0609 48.4313 45.0526 48.3721C45.0361 48.2537 45.0111 48.087 44.9759 47.8775C44.9056 47.4587 44.7938 46.8671 44.6247 46.1478C44.2874 44.7131 43.7169 42.748 42.7796 40.6213C41.3204 37.3104 38.9005 33.4543 34.9472 30.6862L30.7315 33.2585Z" fill="#3BAD9A"/>
<path d="M20.9524 50.3608L16.4431 45.9972C15.7241 45.3015 15.5753 44.2262 16.0798 43.3719L19.6338 37.3533L14.3619 33.2585L10.7609 30.2727C6.44128 33.0608 3.8471 37.1421 2.31368 40.6213C1.37639 42.748 0.805919 44.7131 0.468635 46.1478C0.299511 46.8671 0.187719 47.4587 0.117364 47.8775C0.0821618 48.087 0.0572579 48.2537 0.0406939 48.3721C0.0324099 48.4313 0.0262055 48.4784 0.0218372 48.5128L0.0166292 48.5547L0.0149996 48.5684L0.0144182 48.5734L0.0139888 48.5771C-0.123521 49.7747 0.76827 50.8534 2.00586 50.9865H2.50758H22.2969C21.8057 50.9338 21.329 50.7252 20.9524 50.3608Z" fill="#3BAD9A"/>
<path d="M20.8493 44.09L22.5467 41.2157L24.244 44.09L22.5467 45.7325L20.8493 44.09Z" fill="#3BAD9A"/>
</svg>
